<mxfile host="app.diagrams.net" agent="Mozilla/5.0 (Macintosh; Intel Mac OS X 10_15_7) AppleWebKit/537.36 (KHTML, like Gecko) Chrome/137.0.0.0 Safari/537.36" version="27.1.6">
  <diagram name="第 1 页" id="UvjpaZBokncRVDSgqY-v">
    <mxGraphModel dx="1501" dy="1975" grid="1" gridSize="10" guides="1" tooltips="1" connect="1" arrows="1" fold="1" page="1" pageScale="1" pageWidth="827" pageHeight="1169" math="0" shadow="0">
      <root>
        <mxCell id="0" />
        <mxCell id="1" parent="0" />
        <mxCell id="wM81eHvgQhmUPVbfZc3R-40" style="edgeStyle=orthogonalEdgeStyle;rounded=0;orthogonalLoop=1;jettySize=auto;html=1;entryX=0;entryY=0.5;entryDx=0;entryDy=0;" edge="1" parent="1" source="wM81eHvgQhmUPVbfZc3R-22" target="wM81eHvgQhmUPVbfZc3R-23">
          <mxGeometry relative="1" as="geometry">
            <Array as="points">
              <mxPoint x="500" y="67" />
              <mxPoint x="500" y="167" />
            </Array>
          </mxGeometry>
        </mxCell>
        <mxCell id="wM81eHvgQhmUPVbfZc3R-41" style="edgeStyle=orthogonalEdgeStyle;rounded=0;orthogonalLoop=1;jettySize=auto;html=1;entryX=1;entryY=0.5;entryDx=0;entryDy=0;" edge="1" parent="1" source="wM81eHvgQhmUPVbfZc3R-22" target="wM81eHvgQhmUPVbfZc3R-23">
          <mxGeometry relative="1" as="geometry">
            <Array as="points">
              <mxPoint x="740" y="67" />
              <mxPoint x="740" y="167" />
            </Array>
          </mxGeometry>
        </mxCell>
        <mxCell id="wM81eHvgQhmUPVbfZc3R-22" value="MyFootage" style="whiteSpace=wrap;strokeWidth=2;fillColor=#e1d5e7;strokeColor=#9673a6;" vertex="1" parent="1">
          <mxGeometry x="555" y="40" width="136" height="54" as="geometry" />
        </mxCell>
        <mxCell id="wM81eHvgQhmUPVbfZc3R-44" style="edgeStyle=orthogonalEdgeStyle;rounded=0;orthogonalLoop=1;jettySize=auto;html=1;entryX=0.5;entryY=0;entryDx=0;entryDy=0;" edge="1" parent="1" source="wM81eHvgQhmUPVbfZc3R-23" target="wM81eHvgQhmUPVbfZc3R-43">
          <mxGeometry relative="1" as="geometry" />
        </mxCell>
        <mxCell id="wM81eHvgQhmUPVbfZc3R-23" value="素材集合页" style="whiteSpace=wrap;strokeWidth=2;fillColor=#dae8fc;strokeColor=#6c8ebf;" vertex="1" parent="1">
          <mxGeometry x="556" y="140" width="140" height="54" as="geometry" />
        </mxCell>
        <mxCell id="wM81eHvgQhmUPVbfZc3R-80" style="edgeStyle=orthogonalEdgeStyle;rounded=0;orthogonalLoop=1;jettySize=auto;html=1;entryX=0.5;entryY=0;entryDx=0;entryDy=0;" edge="1" parent="1" source="wM81eHvgQhmUPVbfZc3R-25" target="wM81eHvgQhmUPVbfZc3R-26">
          <mxGeometry relative="1" as="geometry" />
        </mxCell>
        <mxCell id="wM81eHvgQhmUPVbfZc3R-25" value="" style="whiteSpace=wrap;strokeWidth=2;fillColor=#fad9d5;strokeColor=#ae4132;" vertex="1" parent="1">
          <mxGeometry x="460" y="466" width="350" height="104" as="geometry" />
        </mxCell>
        <mxCell id="wM81eHvgQhmUPVbfZc3R-64" style="edgeStyle=orthogonalEdgeStyle;rounded=0;orthogonalLoop=1;jettySize=auto;html=1;entryX=0.5;entryY=0;entryDx=0;entryDy=0;" edge="1" parent="1" source="wM81eHvgQhmUPVbfZc3R-26" target="wM81eHvgQhmUPVbfZc3R-27">
          <mxGeometry relative="1" as="geometry" />
        </mxCell>
        <mxCell id="wM81eHvgQhmUPVbfZc3R-26" value="帖子发布页" style="whiteSpace=wrap;strokeWidth=2;fillColor=#bac8d3;strokeColor=#23445d;" vertex="1" parent="1">
          <mxGeometry x="460" y="600" width="350" height="54" as="geometry" />
        </mxCell>
        <mxCell id="wM81eHvgQhmUPVbfZc3R-27" value="发布完成" style="whiteSpace=wrap;strokeWidth=2;fillColor=#ffcc99;strokeColor=#36393d;" vertex="1" parent="1">
          <mxGeometry x="573" y="680" width="124" height="54" as="geometry" />
        </mxCell>
        <mxCell id="wM81eHvgQhmUPVbfZc3R-34" value="筛选素材类型" style="text;html=1;align=center;verticalAlign=middle;resizable=0;points=[];autosize=1;strokeColor=none;fillColor=none;" vertex="1" parent="1">
          <mxGeometry x="410" y="110" width="100" height="30" as="geometry" />
        </mxCell>
        <mxCell id="wM81eHvgQhmUPVbfZc3R-37" value="" style="edgeStyle=orthogonalEdgeStyle;rounded=0;orthogonalLoop=1;jettySize=auto;html=1;" edge="1" parent="1" source="wM81eHvgQhmUPVbfZc3R-35" target="wM81eHvgQhmUPVbfZc3R-22">
          <mxGeometry relative="1" as="geometry" />
        </mxCell>
        <mxCell id="wM81eHvgQhmUPVbfZc3R-35" value="我的贴文" style="rounded=1;whiteSpace=wrap;html=1;strokeWidth=2;fillColor=#fff2cc;strokeColor=#d6b656;" vertex="1" parent="1">
          <mxGeometry x="566" y="-40" width="114" height="50" as="geometry" />
        </mxCell>
        <mxCell id="wM81eHvgQhmUPVbfZc3R-42" value="点击直播场次" style="text;html=1;align=center;verticalAlign=middle;resizable=0;points=[];autosize=1;strokeColor=none;fillColor=none;" vertex="1" parent="1">
          <mxGeometry x="730" y="110" width="100" height="30" as="geometry" />
        </mxCell>
        <mxCell id="wM81eHvgQhmUPVbfZc3R-49" style="edgeStyle=orthogonalEdgeStyle;rounded=0;orthogonalLoop=1;jettySize=auto;html=1;entryX=0.5;entryY=0;entryDx=0;entryDy=0;" edge="1" parent="1" source="wM81eHvgQhmUPVbfZc3R-43" target="wM81eHvgQhmUPVbfZc3R-45">
          <mxGeometry relative="1" as="geometry">
            <Array as="points">
              <mxPoint x="626" y="330" />
              <mxPoint x="540" y="330" />
            </Array>
          </mxGeometry>
        </mxCell>
        <mxCell id="wM81eHvgQhmUPVbfZc3R-72" style="edgeStyle=orthogonalEdgeStyle;rounded=0;orthogonalLoop=1;jettySize=auto;html=1;entryX=0.5;entryY=0;entryDx=0;entryDy=0;" edge="1" parent="1" source="wM81eHvgQhmUPVbfZc3R-43" target="wM81eHvgQhmUPVbfZc3R-70">
          <mxGeometry relative="1" as="geometry">
            <Array as="points">
              <mxPoint x="626" y="330" />
              <mxPoint x="725" y="330" />
            </Array>
          </mxGeometry>
        </mxCell>
        <mxCell id="wM81eHvgQhmUPVbfZc3R-43" value="模板预览页" style="whiteSpace=wrap;strokeWidth=2;fillColor=#b0e3e6;strokeColor=#0e8088;" vertex="1" parent="1">
          <mxGeometry x="556" y="240" width="140" height="54" as="geometry" />
        </mxCell>
        <mxCell id="wM81eHvgQhmUPVbfZc3R-45" value="单个素材播放" style="rounded=0;whiteSpace=wrap;html=1;" vertex="1" parent="1">
          <mxGeometry x="480" y="478" width="120" height="60" as="geometry" />
        </mxCell>
        <mxCell id="wM81eHvgQhmUPVbfZc3R-46" value="合成视频播放" style="rounded=0;whiteSpace=wrap;html=1;" vertex="1" parent="1">
          <mxGeometry x="665" y="478" width="120" height="60" as="geometry" />
        </mxCell>
        <mxCell id="wM81eHvgQhmUPVbfZc3R-48" value="合成视频预览页" style="text;html=1;align=center;verticalAlign=middle;resizable=0;points=[];autosize=1;strokeColor=none;fillColor=none;" vertex="1" parent="1">
          <mxGeometry x="580" y="538" width="110" height="30" as="geometry" />
        </mxCell>
        <mxCell id="wM81eHvgQhmUPVbfZc3R-51" value="素材数量==1" style="text;html=1;align=center;verticalAlign=middle;resizable=0;points=[];autosize=1;strokeColor=none;fillColor=none;" vertex="1" parent="1">
          <mxGeometry x="460" y="324" width="90" height="30" as="geometry" />
        </mxCell>
        <mxCell id="wM81eHvgQhmUPVbfZc3R-52" value="素材数量&amp;gt;1" style="text;html=1;align=center;verticalAlign=middle;resizable=0;points=[];autosize=1;strokeColor=none;fillColor=none;" vertex="1" parent="1">
          <mxGeometry x="626" y="330" width="90" height="30" as="geometry" />
        </mxCell>
        <mxCell id="wM81eHvgQhmUPVbfZc3R-56" value="合成成功通知" style="text;html=1;align=center;verticalAlign=middle;resizable=0;points=[];autosize=1;strokeColor=none;fillColor=none;" vertex="1" parent="1">
          <mxGeometry x="880" y="450" width="100" height="30" as="geometry" />
        </mxCell>
        <mxCell id="wM81eHvgQhmUPVbfZc3R-58" value="选择素材" style="text;html=1;align=center;verticalAlign=middle;resizable=0;points=[];autosize=1;strokeColor=none;fillColor=none;" vertex="1" parent="1">
          <mxGeometry x="626" y="200" width="70" height="30" as="geometry" />
        </mxCell>
        <mxCell id="wM81eHvgQhmUPVbfZc3R-75" style="edgeStyle=orthogonalEdgeStyle;rounded=0;orthogonalLoop=1;jettySize=auto;html=1;entryX=0.5;entryY=0;entryDx=0;entryDy=0;" edge="1" parent="1" source="wM81eHvgQhmUPVbfZc3R-70" target="wM81eHvgQhmUPVbfZc3R-46">
          <mxGeometry relative="1" as="geometry" />
        </mxCell>
        <mxCell id="wM81eHvgQhmUPVbfZc3R-76" style="edgeStyle=orthogonalEdgeStyle;rounded=0;orthogonalLoop=1;jettySize=auto;html=1;entryX=0;entryY=0.5;entryDx=0;entryDy=0;" edge="1" parent="1" source="wM81eHvgQhmUPVbfZc3R-70" target="wM81eHvgQhmUPVbfZc3R-74">
          <mxGeometry relative="1" as="geometry" />
        </mxCell>
        <mxCell id="wM81eHvgQhmUPVbfZc3R-82" style="edgeStyle=orthogonalEdgeStyle;rounded=0;orthogonalLoop=1;jettySize=auto;html=1;" edge="1" parent="1" source="wM81eHvgQhmUPVbfZc3R-74">
          <mxGeometry relative="1" as="geometry">
            <mxPoint x="810" y="518" as="targetPoint" />
            <Array as="points">
              <mxPoint x="875" y="518" />
            </Array>
          </mxGeometry>
        </mxCell>
        <mxCell id="wM81eHvgQhmUPVbfZc3R-70" value="是否展示小窗" style="rhombus;whiteSpace=wrap;html=1;fillColor=#f5f5f5;fontColor=#333333;strokeColor=#666666;" vertex="1" parent="1">
          <mxGeometry x="680" y="354" width="90" height="70" as="geometry" />
        </mxCell>
        <mxCell id="wM81eHvgQhmUPVbfZc3R-81" style="edgeStyle=orthogonalEdgeStyle;rounded=0;orthogonalLoop=1;jettySize=auto;html=1;entryX=1;entryY=0.5;entryDx=0;entryDy=0;" edge="1" parent="1" source="wM81eHvgQhmUPVbfZc3R-74" target="wM81eHvgQhmUPVbfZc3R-43">
          <mxGeometry relative="1" as="geometry">
            <Array as="points">
              <mxPoint x="870" y="267" />
            </Array>
          </mxGeometry>
        </mxCell>
        <mxCell id="wM81eHvgQhmUPVbfZc3R-74" value="小窗逻辑" style="rounded=0;whiteSpace=wrap;html=1;fillColor=#cdeb8b;strokeColor=#36393d;" vertex="1" parent="1">
          <mxGeometry x="830" y="360" width="90" height="59" as="geometry" />
        </mxCell>
        <mxCell id="wM81eHvgQhmUPVbfZc3R-69" value="" style="html=1;shadow=0;dashed=0;align=center;verticalAlign=middle;shape=mxgraph.arrows2.arrow;dy=0.6;dx=40;flipH=1;notch=0;fillColor=#ffff88;strokeColor=#36393d;" vertex="1" parent="1">
          <mxGeometry x="730" y="424" width="190" height="36" as="geometry" />
        </mxCell>
      </root>
    </mxGraphModel>
  </diagram>
</mxfile>
